<?xml version="1.0" encoding="utf-8"?>
<!-- Generator: Adobe Illustrator 25.4.1, SVG Export Plug-In . SVG Version: 6.00 Build 0)  -->
<svg version="1.1" id="Layer_1" xmlns="http://www.w3.org/2000/svg" xmlns:xlink="http://www.w3.org/1999/xlink" x="0px" y="0px"
	 viewBox="0 0 508 508" style="enable-background:new 0 0 508 508;" xml:space="preserve">
<style type="text/css">
	.st0{fill-rule:evenodd;clip-rule:evenodd;fill:#109ED3;}
	.st1{fill-rule:evenodd;clip-rule:evenodd;fill:#10B0EC;}
	.st2{fill-rule:evenodd;clip-rule:evenodd;fill:#1788B3;}
	.st3{fill-rule:evenodd;clip-rule:evenodd;fill:#D9BA06;}
	.st4{fill-rule:evenodd;clip-rule:evenodd;fill:#F4D002;}
	.st5{fill-rule:evenodd;clip-rule:evenodd;fill:#279D34;}
	.st6{fill-rule:evenodd;clip-rule:evenodd;fill:#32B240;}
	.st7{fill-rule:evenodd;clip-rule:evenodd;fill:#CB0806;}
	.st8{fill-rule:evenodd;clip-rule:evenodd;fill:#FF0000;}
	.st9{fill-rule:evenodd;clip-rule:evenodd;fill:#E10709;}
	.st10{fill-rule:evenodd;clip-rule:evenodd;fill:#A7080A;}
</style>
<g id="drash-open-graph">
	<g id="polygons_00000034058442318932785520000012816283439398421910_">
		<polygon id="Triangle_00000107585949648851624190000016460503627994100886_" class="st0" points="280.3,370 255.9,501.3 
			149.4,343.8 		"/>
		<polygon id="Triangle_00000041286140680121786350000017818117033035024809_" class="st1" points="84.8,135 139,13 206,191 		"/>
		<polygon id="Triangle_00000148650510924669663740000005811965689084425867_" class="st2" points="414.2,119 296.1,181.2 353.6,0 
					"/>
		<polygon id="Triangle_00000031893358927499569330000015724079056192021139_" class="st3" points="295.8,181.8 421.1,135.7 
			340.1,307.8 		"/>
		<polygon id="Triangle_00000122709073140013680820000016836729609164911495_" class="st4" points="421.2,136.5 295.8,182.3 
			377.3,10.5 		"/>
		<polygon id="Triangle_00000093872392429780194020000006604201078929638292_" class="st5" points="214.8,369.9 340.1,323.6 
			259.3,495.8 		"/>
		<polygon id="Triangle_00000178916844773373736300000015834892811847795858_" class="st6" points="340.4,323.6 215.2,369.8 
			295.9,197.7 		"/>
		<polygon id="Triangle_00000044882582401870401760000003099151955104910215_" class="st7" points="174.7,333.9 219.2,208 
			300,380.1 		"/>
		<polygon id="Triangle_00000012444478703490808010000006242780020291002507_" class="st8" points="93.4,157.6 137.9,31.7 
			218.7,203.8 		"/>
		<polygon id="Triangle_00000101070420096442713110000015315005063913871524_" class="st9" points="219.2,208.1 174.8,334 94,161.8 
					"/>
		<polygon id="Triangle_00000070113218507158354200000009880826373607007361_" class="st10" points="300,380.1 255.5,506 
			174.7,333.9 		"/>
	</g>
</g>
</svg>
