<?xml version="1.0" encoding="utf-8"?>
<!-- Generator: Adobe Illustrator 25.4.1, SVG Export Plug-In . SVG Version: 6.00 Build 0)  -->
<svg version="1.1" id="Layer_1" xmlns="http://www.w3.org/2000/svg" xmlns:xlink="http://www.w3.org/1999/xlink" x="0px" y="0px"
	 viewBox="0 0 508 508" style="enable-background:new 0 0 508 508;" xml:space="preserve">
<style type="text/css">
	.st0{fill-rule:evenodd;clip-rule:evenodd;fill:#109ED3;}
	.st1{fill-rule:evenodd;clip-rule:evenodd;fill:#10B0EC;}
	.st2{fill-rule:evenodd;clip-rule:evenodd;fill:#1788B3;}
	.st3{fill-rule:evenodd;clip-rule:evenodd;fill:#D9BA06;}
	.st4{fill-rule:evenodd;clip-rule:evenodd;fill:#F4D002;}
	.st5{fill-rule:evenodd;clip-rule:evenodd;fill:#279D34;}
	.st6{fill-rule:evenodd;clip-rule:evenodd;fill:#32B240;}
	.st7{fill-rule:evenodd;clip-rule:evenodd;fill:#CB0806;}
	.st8{fill-rule:evenodd;clip-rule:evenodd;fill:#FF0000;}
	.st9{fill-rule:evenodd;clip-rule:evenodd;fill:#E10709;}
	.st10{fill-rule:evenodd;clip-rule:evenodd;fill:#A7080A;}
</style>
<g id="drash-open-graph">
	<g id="polygons_00000034058442318932785520000012816283439398421910_">
		<polygon id="Triangle" class="st0" points="274.4,341.4 256.2,439.4 176.6,321.8 		"/>
		<polygon id="Triangle_00000041286140680121786350000017818117033035024809_" class="st1" points="128.4,165.9 168.9,74.8 
			218.9,207.7 		"/>
		<polygon id="Triangle_00000148650510924669663740000005811965689084425867_" class="st2" points="374.4,153.9 286.2,200.4 
			329.1,65.1 		"/>
		<polygon id="Triangle_00000031893358927499569330000015724079056192021139_" class="st3" points="285.9,200.8 379.5,166.4 
			319,294.9 		"/>
		<polygon id="Triangle_00000122709073140013680820000016836729609164911495_" class="st4" points="379.6,167 285.9,201.2 
			346.8,72.9 		"/>
		<polygon id="Triangle_00000093872392429780194020000006604201078929638292_" class="st5" points="225.5,341.3 319,306.8 
			258.7,435.3 		"/>
		<polygon id="Triangle_00000178916844773373736300000015834892811847795858_" class="st6" points="319.3,306.7 225.7,341.2 
			286.1,212.7 		"/>
		<polygon id="Triangle_00000044882582401870401760000003099151955104910215_" class="st7" points="195.5,314.4 228.7,220.4 
			289.1,349 		"/>
		<polygon id="Triangle_00000012444478703490808010000006242780020291002507_" class="st8" points="134.8,182.7 168,88.7 
			228.4,217.3 		"/>
		<polygon id="Triangle_00000101070420096442713110000015315005063913871524_" class="st9" points="228.8,220.4 195.6,314.5 
			135.2,185.9 		"/>
		<polygon id="Triangle_00000070113218507158354200000009880826373607007361_" class="st10" points="289.1,348.9 255.9,442.9 
			195.5,314.4 		"/>
	</g>
</g>
</svg>
